<?xml version="1.0" encoding="utf-8" standalone="no"?>
<!DOCTYPE svg PUBLIC "-//W3C//DTD SVG 1.1//EN"
  "http://www.w3.org/Graphics/SVG/1.1/DTD/svg11.dtd">
<svg xmlns:xlink="http://www.w3.org/1999/xlink" width="488.07pt" height="612pt" viewBox="0 0 488.07 612" xmlns="http://www.w3.org/2000/svg" version="1.1">
 <metadata>
  <rdf:RDF xmlns:dc="http://purl.org/dc/elements/1.1/" xmlns:cc="http://creativecommons.org/ns#" xmlns:rdf="http://www.w3.org/1999/02/22-rdf-syntax-ns#">
   <cc:Work>
    <dc:type rdf:resource="http://purl.org/dc/dcmitype/StillImage"/>
    <dc:date>2026-03-04T22:08:01.822639</dc:date>
    <dc:format>image/svg+xml</dc:format>
    <dc:creator>
     <cc:Agent>
      <dc:title>Matplotlib v3.7.5, https://matplotlib.org/</dc:title>
     </cc:Agent>
    </dc:creator>
   </cc:Work>
  </rdf:RDF>
 </metadata>
 <defs>
  <style type="text/css">*{stroke-linejoin: round; stroke-linecap: butt}</style>
 </defs>
 <g id="figure_1">
  <g id="patch_1">
   <path d="M -0 612 
L 488.07 612 
L 488.07 0 
L -0 0 
z
" style="fill: #ffffff"/>
  </g>
  <g id="axes_1">
   <g id="patch_2">
    <path d="M 103.35501 127.573714 
L 384.71499 127.573714 
Q 387.08334 127.573714 387.08334 125.439429 
L 387.08334 72.509143 
Q 387.08334 70.374857 384.71499 70.374857 
L 103.35501 70.374857 
Q 100.98666 70.374857 100.98666 72.509143 
L 100.98666 125.439429 
Q 100.98666 127.573714 103.35501 127.573714 
z
" clip-path="url(#p0a987a1edb)" style="fill: #ececec; stroke: #222222; stroke-width: 1.6; stroke-linejoin: miter"/>
   </g>
   <g id="patch_3">
    <path d="M 71.14545 392.652 
L 416.92455 392.652 
Q 420.71391 392.652 420.71391 389.237143 
L 420.71391 158.734286 
Q 420.71391 155.319429 416.92455 155.319429 
L 71.14545 155.319429 
Q 67.35609 155.319429 67.35609 158.734286 
L 67.35609 389.237143 
Q 67.35609 392.652 71.14545 392.652 
z
" clip-path="url(#p0a987a1edb)" style="fill: #f8f8f8; stroke: #2a2a2a; stroke-width: 1.8; stroke-linejoin: miter"/>
   </g>
   <g id="patch_4">
    <path d="M 108.09171 238.556571 
L 379.97829 238.556571 
Q 382.34664 238.556571 382.34664 236.422286 
L 382.34664 196.297714 
Q 382.34664 194.163429 379.97829 194.163429 
L 108.09171 194.163429 
Q 105.72336 194.163429 105.72336 196.297714 
L 105.72336 236.422286 
Q 105.72336 238.556571 108.09171 238.556571 
z
" clip-path="url(#p0a987a1edb)" style="fill: #e2e2e2; stroke: #222222; stroke-width: 1.6; stroke-linejoin: miter"/>
   </g>
   <g id="patch_5">
    <path d="M 108.09171 294.048 
L 379.97829 294.048 
Q 382.34664 294.048 382.34664 291.913714 
L 382.34664 251.789143 
Q 382.34664 249.654857 379.97829 249.654857 
L 108.09171 249.654857 
Q 105.72336 249.654857 105.72336 251.789143 
L 105.72336 291.913714 
Q 105.72336 294.048 108.09171 294.048 
z
" clip-path="url(#p0a987a1edb)" style="fill: #dbdbdb; stroke: #222222; stroke-width: 1.6; stroke-linejoin: miter"/>
   </g>
   <g id="patch_6">
    <path d="M 108.09171 349.539429 
L 379.97829 349.539429 
Q 382.34664 349.539429 382.34664 347.405143 
L 382.34664 307.280571 
Q 382.34664 305.146286 379.97829 305.146286 
L 108.09171 305.146286 
Q 105.72336 305.146286 105.72336 307.280571 
L 105.72336 347.405143 
Q 105.72336 349.539429 108.09171 349.539429 
z
" clip-path="url(#p0a987a1edb)" style="fill: #d4d4d4; stroke: #222222; stroke-width: 1.6; stroke-linejoin: miter"/>
   </g>
   <g id="patch_7">
    <path d="M 103.35501 490.402286 
L 384.71499 490.402286 
Q 387.08334 490.402286 387.08334 488.268 
L 387.08334 418.263429 
Q 387.08334 416.129143 384.71499 416.129143 
L 103.35501 416.129143 
Q 100.98666 416.129143 100.98666 418.263429 
L 100.98666 488.268 
Q 100.98666 490.402286 103.35501 490.402286 
z
" clip-path="url(#p0a987a1edb)" style="fill: #e6e6e6; stroke: #222222; stroke-width: 1.6; stroke-linejoin: miter"/>
   </g>
   <g id="patch_8">
    <path d="M 244.035 128.722456 
Q 244.035 141.662442 244.035 152.813573 
" clip-path="url(#p0a987a1edb)" style="fill: none; stroke: #333333; stroke-width: 1.6; stroke-linecap: round"/>
    <path d="M 247.635 145.613573 
L 244.035 152.813573 
L 240.435 145.613573 
z
" clip-path="url(#p0a987a1edb)" style="fill: #333333; stroke: #333333; stroke-width: 1.6; stroke-linecap: round"/>
   </g>
   <g id="patch_9">
    <path d="M 244.035 393.369195 
Q 244.035 404.17723 244.035 413.196411 
" clip-path="url(#p0a987a1edb)" style="fill: none; stroke: #333333; stroke-width: 1.6; stroke-linecap: round"/>
    <path d="M 247.635 405.996411 
L 244.035 413.196411 
L 240.435 405.996411 
z
" clip-path="url(#p0a987a1edb)" style="fill: #333333; stroke: #333333; stroke-width: 1.6; stroke-linecap: round"/>
   </g>
   <g id="patch_10">
    <path d="M 386.136 453.397544 
Q 386.136 335.878846 386.136 220.149003 
" clip-path="url(#p0a987a1edb)" style="fill: none; stroke: #1f1f1f; stroke-width: 1.6; stroke-linecap: round"/>
    <path d="M 382.536 227.349003 
L 386.136 220.149003 
L 389.736 227.349003 
z
" clip-path="url(#p0a987a1edb)" style="fill: #1f1f1f; stroke: #1f1f1f; stroke-width: 1.6; stroke-linecap: round"/>
   </g>
   <g id="text_1">
    <!-- Userspace UPMEM Swap Design -->
    <g transform="translate(117.985781 30.677143) scale(0.14 -0.14)">
     <defs>
      <path id="DejaVuSans-Bold-55" d="M 588 4666 
L 1791 4666 
L 1791 1869 
Q 1791 1291 1980 1042 
Q 2169 794 2597 794 
Q 3028 794 3217 1042 
Q 3406 1291 3406 1869 
L 3406 4666 
L 4609 4666 
L 4609 1869 
Q 4609 878 4112 393 
Q 3616 -91 2597 -91 
Q 1581 -91 1084 393 
Q 588 878 588 1869 
L 588 4666 
z
" transform="scale(0.015625)"/>
      <path id="DejaVuSans-Bold-73" d="M 3272 3391 
L 3272 2541 
Q 2913 2691 2578 2766 
Q 2244 2841 1947 2841 
Q 1628 2841 1473 2761 
Q 1319 2681 1319 2516 
Q 1319 2381 1436 2309 
Q 1553 2238 1856 2203 
L 2053 2175 
Q 2913 2066 3209 1816 
Q 3506 1566 3506 1031 
Q 3506 472 3093 190 
Q 2681 -91 1863 -91 
Q 1516 -91 1145 -36 
Q 775 19 384 128 
L 384 978 
Q 719 816 1070 734 
Q 1422 653 1784 653 
Q 2113 653 2278 743 
Q 2444 834 2444 1013 
Q 2444 1163 2330 1236 
Q 2216 1309 1875 1350 
L 1678 1375 
Q 931 1469 631 1722 
Q 331 1975 331 2491 
Q 331 3047 712 3315 
Q 1094 3584 1881 3584 
Q 2191 3584 2531 3537 
Q 2872 3491 3272 3391 
z
" transform="scale(0.015625)"/>
      <path id="DejaVuSans-Bold-65" d="M 4031 1759 
L 4031 1441 
L 1416 1441 
Q 1456 1047 1700 850 
Q 1944 653 2381 653 
Q 2734 653 3104 758 
Q 3475 863 3866 1075 
L 3866 213 
Q 3469 63 3072 -14 
Q 2675 -91 2278 -91 
Q 1328 -91 801 392 
Q 275 875 275 1747 
Q 275 2603 792 3093 
Q 1309 3584 2216 3584 
Q 3041 3584 3536 3087 
Q 4031 2591 4031 1759 
z
M 2881 2131 
Q 2881 2450 2695 2645 
Q 2509 2841 2209 2841 
Q 1884 2841 1681 2658 
Q 1478 2475 1428 2131 
L 2881 2131 
z
" transform="scale(0.015625)"/>
      <path id="DejaVuSans-Bold-72" d="M 3138 2547 
Q 2991 2616 2845 2648 
Q 2700 2681 2553 2681 
Q 2122 2681 1889 2404 
Q 1656 2128 1656 1613 
L 1656 0 
L 538 0 
L 538 3500 
L 1656 3500 
L 1656 2925 
Q 1872 3269 2151 3426 
Q 2431 3584 2822 3584 
Q 2878 3584 2943 3579 
Q 3009 3575 3134 3559 
L 3138 2547 
z
" transform="scale(0.015625)"/>
      <path id="DejaVuSans-Bold-70" d="M 1656 506 
L 1656 -1331 
L 538 -1331 
L 538 3500 
L 1656 3500 
L 1656 2988 
Q 1888 3294 2169 3439 
Q 2450 3584 2816 3584 
Q 3463 3584 3878 3070 
Q 4294 2556 4294 1747 
Q 4294 938 3878 423 
Q 3463 -91 2816 -91 
Q 2450 -91 2169 54 
Q 1888 200 1656 506 
z
M 2400 2772 
Q 2041 2772 1848 2508 
Q 1656 2244 1656 1747 
Q 1656 1250 1848 986 
Q 2041 722 2400 722 
Q 2759 722 2948 984 
Q 3138 1247 3138 1747 
Q 3138 2247 2948 2509 
Q 2759 2772 2400 2772 
z
" transform="scale(0.015625)"/>
      <path id="DejaVuSans-Bold-61" d="M 2106 1575 
Q 1756 1575 1579 1456 
Q 1403 1338 1403 1106 
Q 1403 894 1545 773 
Q 1688 653 1941 653 
Q 2256 653 2472 879 
Q 2688 1106 2688 1447 
L 2688 1575 
L 2106 1575 
z
M 3816 1997 
L 3816 0 
L 2688 0 
L 2688 519 
Q 2463 200 2181 54 
Q 1900 -91 1497 -91 
Q 953 -91 614 226 
Q 275 544 275 1050 
Q 275 1666 698 1953 
Q 1122 2241 2028 2241 
L 2688 2241 
L 2688 2328 
Q 2688 2594 2478 2717 
Q 2269 2841 1825 2841 
Q 1466 2841 1156 2769 
Q 847 2697 581 2553 
L 581 3406 
Q 941 3494 1303 3539 
Q 1666 3584 2028 3584 
Q 2975 3584 3395 3211 
Q 3816 2838 3816 1997 
z
" transform="scale(0.015625)"/>
      <path id="DejaVuSans-Bold-63" d="M 3366 3391 
L 3366 2478 
Q 3138 2634 2908 2709 
Q 2678 2784 2431 2784 
Q 1963 2784 1702 2511 
Q 1441 2238 1441 1747 
Q 1441 1256 1702 982 
Q 1963 709 2431 709 
Q 2694 709 2930 787 
Q 3166 866 3366 1019 
L 3366 103 
Q 3103 6 2833 -42 
Q 2563 -91 2291 -91 
Q 1344 -91 809 395 
Q 275 881 275 1747 
Q 275 2613 809 3098 
Q 1344 3584 2291 3584 
Q 2566 3584 2833 3536 
Q 3100 3488 3366 3391 
z
" transform="scale(0.015625)"/>
      <path id="DejaVuSans-Bold-20" transform="scale(0.015625)"/>
      <path id="DejaVuSans-Bold-50" d="M 588 4666 
L 2584 4666 
Q 3475 4666 3951 4270 
Q 4428 3875 4428 3144 
Q 4428 2409 3951 2014 
Q 3475 1619 2584 1619 
L 1791 1619 
L 1791 0 
L 588 0 
L 588 4666 
z
M 1791 3794 
L 1791 2491 
L 2456 2491 
Q 2806 2491 2997 2661 
Q 3188 2831 3188 3144 
Q 3188 3456 2997 3625 
Q 2806 3794 2456 3794 
L 1791 3794 
z
" transform="scale(0.015625)"/>
      <path id="DejaVuSans-Bold-4d" d="M 588 4666 
L 2119 4666 
L 3181 2169 
L 4250 4666 
L 5778 4666 
L 5778 0 
L 4641 0 
L 4641 3413 
L 3566 897 
L 2803 897 
L 1728 3413 
L 1728 0 
L 588 0 
L 588 4666 
z
" transform="scale(0.015625)"/>
      <path id="DejaVuSans-Bold-45" d="M 588 4666 
L 3834 4666 
L 3834 3756 
L 1791 3756 
L 1791 2888 
L 3713 2888 
L 3713 1978 
L 1791 1978 
L 1791 909 
L 3903 909 
L 3903 0 
L 588 0 
L 588 4666 
z
" transform="scale(0.015625)"/>
      <path id="DejaVuSans-Bold-53" d="M 3834 4519 
L 3834 3531 
Q 3450 3703 3084 3790 
Q 2719 3878 2394 3878 
Q 1963 3878 1756 3759 
Q 1550 3641 1550 3391 
Q 1550 3203 1689 3098 
Q 1828 2994 2194 2919 
L 2706 2816 
Q 3484 2659 3812 2340 
Q 4141 2022 4141 1434 
Q 4141 663 3683 286 
Q 3225 -91 2284 -91 
Q 1841 -91 1394 -6 
Q 947 78 500 244 
L 500 1259 
Q 947 1022 1364 901 
Q 1781 781 2169 781 
Q 2563 781 2772 912 
Q 2981 1044 2981 1288 
Q 2981 1506 2839 1625 
Q 2697 1744 2272 1838 
L 1806 1941 
Q 1106 2091 782 2419 
Q 459 2747 459 3303 
Q 459 4000 909 4375 
Q 1359 4750 2203 4750 
Q 2588 4750 2994 4692 
Q 3400 4634 3834 4519 
z
" transform="scale(0.015625)"/>
      <path id="DejaVuSans-Bold-77" d="M 225 3500 
L 1313 3500 
L 1900 1088 
L 2491 3500 
L 3425 3500 
L 4013 1113 
L 4603 3500 
L 5691 3500 
L 4769 0 
L 3547 0 
L 2956 2406 
L 2369 0 
L 1147 0 
L 225 3500 
z
" transform="scale(0.015625)"/>
      <path id="DejaVuSans-Bold-44" d="M 1791 3756 
L 1791 909 
L 2222 909 
Q 2959 909 3348 1275 
Q 3738 1641 3738 2338 
Q 3738 3031 3350 3393 
Q 2963 3756 2222 3756 
L 1791 3756 
z
M 588 4666 
L 1856 4666 
Q 2919 4666 3439 4514 
Q 3959 4363 4331 4000 
Q 4659 3684 4818 3271 
Q 4978 2859 4978 2338 
Q 4978 1809 4818 1395 
Q 4659 981 4331 666 
Q 3956 303 3431 151 
Q 2906 0 1856 0 
L 588 0 
L 588 4666 
z
" transform="scale(0.015625)"/>
      <path id="DejaVuSans-Bold-69" d="M 538 3500 
L 1656 3500 
L 1656 0 
L 538 0 
L 538 3500 
z
M 538 4863 
L 1656 4863 
L 1656 3950 
L 538 3950 
L 538 4863 
z
" transform="scale(0.015625)"/>
      <path id="DejaVuSans-Bold-67" d="M 2919 594 
Q 2688 288 2409 144 
Q 2131 0 1766 0 
Q 1125 0 706 504 
Q 288 1009 288 1791 
Q 288 2575 706 3076 
Q 1125 3578 1766 3578 
Q 2131 3578 2409 3434 
Q 2688 3291 2919 2981 
L 2919 3500 
L 4044 3500 
L 4044 353 
Q 4044 -491 3511 -936 
Q 2978 -1381 1966 -1381 
Q 1638 -1381 1331 -1331 
Q 1025 -1281 716 -1178 
L 716 -306 
Q 1009 -475 1290 -558 
Q 1572 -641 1856 -641 
Q 2406 -641 2662 -400 
Q 2919 -159 2919 353 
L 2919 594 
z
M 2181 2772 
Q 1834 2772 1640 2515 
Q 1447 2259 1447 1791 
Q 1447 1309 1634 1061 
Q 1822 813 2181 813 
Q 2531 813 2725 1069 
Q 2919 1325 2919 1791 
Q 2919 2259 2725 2515 
Q 2531 2772 2181 2772 
z
" transform="scale(0.015625)"/>
      <path id="DejaVuSans-Bold-6e" d="M 4056 2131 
L 4056 0 
L 2931 0 
L 2931 347 
L 2931 1631 
Q 2931 2084 2911 2256 
Q 2891 2428 2841 2509 
Q 2775 2619 2662 2680 
Q 2550 2741 2406 2741 
Q 2056 2741 1856 2470 
Q 1656 2200 1656 1722 
L 1656 0 
L 538 0 
L 538 3500 
L 1656 3500 
L 1656 2988 
Q 1909 3294 2193 3439 
Q 2478 3584 2822 3584 
Q 3428 3584 3742 3212 
Q 4056 2841 4056 2131 
z
" transform="scale(0.015625)"/>
     </defs>
     <use xlink:href="#DejaVuSans-Bold-55"/>
     <use xlink:href="#DejaVuSans-Bold-73" x="81.201172"/>
     <use xlink:href="#DejaVuSans-Bold-65" x="140.722656"/>
     <use xlink:href="#DejaVuSans-Bold-72" x="208.544922"/>
     <use xlink:href="#DejaVuSans-Bold-73" x="257.861328"/>
     <use xlink:href="#DejaVuSans-Bold-70" x="317.382812"/>
     <use xlink:href="#DejaVuSans-Bold-61" x="388.964844"/>
     <use xlink:href="#DejaVuSans-Bold-63" x="456.445312"/>
     <use xlink:href="#DejaVuSans-Bold-65" x="515.722656"/>
     <use xlink:href="#DejaVuSans-Bold-20" x="583.544922"/>
     <use xlink:href="#DejaVuSans-Bold-55" x="618.359375"/>
     <use xlink:href="#DejaVuSans-Bold-50" x="699.560547"/>
     <use xlink:href="#DejaVuSans-Bold-4d" x="772.851562"/>
     <use xlink:href="#DejaVuSans-Bold-45" x="872.363281"/>
     <use xlink:href="#DejaVuSans-Bold-4d" x="940.673828"/>
     <use xlink:href="#DejaVuSans-Bold-20" x="1040.185547"/>
     <use xlink:href="#DejaVuSans-Bold-53" x="1075"/>
     <use xlink:href="#DejaVuSans-Bold-77" x="1147.021484"/>
     <use xlink:href="#DejaVuSans-Bold-61" x="1239.404297"/>
     <use xlink:href="#DejaVuSans-Bold-70" x="1306.884766"/>
     <use xlink:href="#DejaVuSans-Bold-20" x="1378.466797"/>
     <use xlink:href="#DejaVuSans-Bold-44" x="1413.28125"/>
     <use xlink:href="#DejaVuSans-Bold-65" x="1496.289062"/>
     <use xlink:href="#DejaVuSans-Bold-73" x="1564.111328"/>
     <use xlink:href="#DejaVuSans-Bold-69" x="1623.632812"/>
     <use xlink:href="#DejaVuSans-Bold-67" x="1657.910156"/>
     <use xlink:href="#DejaVuSans-Bold-6e" x="1729.492188"/>
    </g>
   </g>
   <g id="text_2">
    <!-- No kernel modifications - swap-in path starts after MAJOR page fault -->
    <g transform="translate(80.14875 52.02) scale(0.096 -0.096)">
     <defs>
      <path id="DejaVuSans-4e" d="M 628 4666 
L 1478 4666 
L 3547 763 
L 3547 4666 
L 4159 4666 
L 4159 0 
L 3309 0 
L 1241 3903 
L 1241 0 
L 628 0 
L 628 4666 
z
" transform="scale(0.015625)"/>
      <path id="DejaVuSans-6f" d="M 1959 3097 
Q 1497 3097 1228 2736 
Q 959 2375 959 1747 
Q 959 1119 1226 758 
Q 1494 397 1959 397 
Q 2419 397 2687 759 
Q 2956 1122 2956 1747 
Q 2956 2369 2687 2733 
Q 2419 3097 1959 3097 
z
M 1959 3584 
Q 2709 3584 3137 3096 
Q 3566 2609 3566 1747 
Q 3566 888 3137 398 
Q 2709 -91 1959 -91 
Q 1206 -91 779 398 
Q 353 888 353 1747 
Q 353 2609 779 3096 
Q 1206 3584 1959 3584 
z
" transform="scale(0.015625)"/>
      <path id="DejaVuSans-20" transform="scale(0.015625)"/>
      <path id="DejaVuSans-6b" d="M 581 4863 
L 1159 4863 
L 1159 1991 
L 2875 3500 
L 3609 3500 
L 1753 1863 
L 3688 0 
L 2938 0 
L 1159 1709 
L 1159 0 
L 581 0 
L 581 4863 
z
" transform="scale(0.015625)"/>
      <path id="DejaVuSans-65" d="M 3597 1894 
L 3597 1613 
L 953 1613 
Q 991 1019 1311 708 
Q 1631 397 2203 397 
Q 2534 397 2845 478 
Q 3156 559 3463 722 
L 3463 178 
Q 3153 47 2828 -22 
Q 2503 -91 2169 -91 
Q 1331 -91 842 396 
Q 353 884 353 1716 
Q 353 2575 817 3079 
Q 1281 3584 2069 3584 
Q 2775 3584 3186 3129 
Q 3597 2675 3597 1894 
z
M 3022 2063 
Q 3016 2534 2758 2815 
Q 2500 3097 2075 3097 
Q 1594 3097 1305 2825 
Q 1016 2553 972 2059 
L 3022 2063 
z
" transform="scale(0.015625)"/>
      <path id="DejaVuSans-72" d="M 2631 2963 
Q 2534 3019 2420 3045 
Q 2306 3072 2169 3072 
Q 1681 3072 1420 2755 
Q 1159 2438 1159 1844 
L 1159 0 
L 581 0 
L 581 3500 
L 1159 3500 
L 1159 2956 
Q 1341 3275 1631 3429 
Q 1922 3584 2338 3584 
Q 2397 3584 2469 3576 
Q 2541 3569 2628 3553 
L 2631 2963 
z
" transform="scale(0.015625)"/>
      <path id="DejaVuSans-6e" d="M 3513 2113 
L 3513 0 
L 2938 0 
L 2938 2094 
Q 2938 2591 2744 2837 
Q 2550 3084 2163 3084 
Q 1697 3084 1428 2787 
Q 1159 2491 1159 1978 
L 1159 0 
L 581 0 
L 581 3500 
L 1159 3500 
L 1159 2956 
Q 1366 3272 1645 3428 
Q 1925 3584 2291 3584 
Q 2894 3584 3203 3211 
Q 3513 2838 3513 2113 
z
" transform="scale(0.015625)"/>
      <path id="DejaVuSans-6c" d="M 603 4863 
L 1178 4863 
L 1178 0 
L 603 0 
L 603 4863 
z
" transform="scale(0.015625)"/>
      <path id="DejaVuSans-6d" d="M 3328 2828 
Q 3544 3216 3844 3400 
Q 4144 3584 4550 3584 
Q 5097 3584 5394 3201 
Q 5691 2819 5691 2113 
L 5691 0 
L 5113 0 
L 5113 2094 
Q 5113 2597 4934 2840 
Q 4756 3084 4391 3084 
Q 3944 3084 3684 2787 
Q 3425 2491 3425 1978 
L 3425 0 
L 2847 0 
L 2847 2094 
Q 2847 2600 2669 2842 
Q 2491 3084 2119 3084 
Q 1678 3084 1418 2786 
Q 1159 2488 1159 1978 
L 1159 0 
L 581 0 
L 581 3500 
L 1159 3500 
L 1159 2956 
Q 1356 3278 1631 3431 
Q 1906 3584 2284 3584 
Q 2666 3584 2933 3390 
Q 3200 3197 3328 2828 
z
" transform="scale(0.015625)"/>
      <path id="DejaVuSans-64" d="M 2906 2969 
L 2906 4863 
L 3481 4863 
L 3481 0 
L 2906 0 
L 2906 525 
Q 2725 213 2448 61 
Q 2172 -91 1784 -91 
Q 1150 -91 751 415 
Q 353 922 353 1747 
Q 353 2572 751 3078 
Q 1150 3584 1784 3584 
Q 2172 3584 2448 3432 
Q 2725 3281 2906 2969 
z
M 947 1747 
Q 947 1113 1208 752 
Q 1469 391 1925 391 
Q 2381 391 2643 752 
Q 2906 1113 2906 1747 
Q 2906 2381 2643 2742 
Q 2381 3103 1925 3103 
Q 1469 3103 1208 2742 
Q 947 2381 947 1747 
z
" transform="scale(0.015625)"/>
      <path id="DejaVuSans-69" d="M 603 3500 
L 1178 3500 
L 1178 0 
L 603 0 
L 603 3500 
z
M 603 4863 
L 1178 4863 
L 1178 4134 
L 603 4134 
L 603 4863 
z
" transform="scale(0.015625)"/>
      <path id="DejaVuSans-66" d="M 2375 4863 
L 2375 4384 
L 1825 4384 
Q 1516 4384 1395 4259 
Q 1275 4134 1275 3809 
L 1275 3500 
L 2222 3500 
L 2222 3053 
L 1275 3053 
L 1275 0 
L 697 0 
L 697 3053 
L 147 3053 
L 147 3500 
L 697 3500 
L 697 3744 
Q 697 4328 969 4595 
Q 1241 4863 1831 4863 
L 2375 4863 
z
" transform="scale(0.015625)"/>
      <path id="DejaVuSans-63" d="M 3122 3366 
L 3122 2828 
Q 2878 2963 2633 3030 
Q 2388 3097 2138 3097 
Q 1578 3097 1268 2742 
Q 959 2388 959 1747 
Q 959 1106 1268 751 
Q 1578 397 2138 397 
Q 2388 397 2633 464 
Q 2878 531 3122 666 
L 3122 134 
Q 2881 22 2623 -34 
Q 2366 -91 2075 -91 
Q 1284 -91 818 406 
Q 353 903 353 1747 
Q 353 2603 823 3093 
Q 1294 3584 2113 3584 
Q 2378 3584 2631 3529 
Q 2884 3475 3122 3366 
z
" transform="scale(0.015625)"/>
      <path id="DejaVuSans-61" d="M 2194 1759 
Q 1497 1759 1228 1600 
Q 959 1441 959 1056 
Q 959 750 1161 570 
Q 1363 391 1709 391 
Q 2188 391 2477 730 
Q 2766 1069 2766 1631 
L 2766 1759 
L 2194 1759 
z
M 3341 1997 
L 3341 0 
L 2766 0 
L 2766 531 
Q 2569 213 2275 61 
Q 1981 -91 1556 -91 
Q 1019 -91 701 211 
Q 384 513 384 1019 
Q 384 1609 779 1909 
Q 1175 2209 1959 2209 
L 2766 2209 
L 2766 2266 
Q 2766 2663 2505 2880 
Q 2244 3097 1772 3097 
Q 1472 3097 1187 3025 
Q 903 2953 641 2809 
L 641 3341 
Q 956 3463 1253 3523 
Q 1550 3584 1831 3584 
Q 2591 3584 2966 3190 
Q 3341 2797 3341 1997 
z
" transform="scale(0.015625)"/>
      <path id="DejaVuSans-74" d="M 1172 4494 
L 1172 3500 
L 2356 3500 
L 2356 3053 
L 1172 3053 
L 1172 1153 
Q 1172 725 1289 603 
Q 1406 481 1766 481 
L 2356 481 
L 2356 0 
L 1766 0 
Q 1100 0 847 248 
Q 594 497 594 1153 
L 594 3053 
L 172 3053 
L 172 3500 
L 594 3500 
L 594 4494 
L 1172 4494 
z
" transform="scale(0.015625)"/>
      <path id="DejaVuSans-73" d="M 2834 3397 
L 2834 2853 
Q 2591 2978 2328 3040 
Q 2066 3103 1784 3103 
Q 1356 3103 1142 2972 
Q 928 2841 928 2578 
Q 928 2378 1081 2264 
Q 1234 2150 1697 2047 
L 1894 2003 
Q 2506 1872 2764 1633 
Q 3022 1394 3022 966 
Q 3022 478 2636 193 
Q 2250 -91 1575 -91 
Q 1294 -91 989 -36 
Q 684 19 347 128 
L 347 722 
Q 666 556 975 473 
Q 1284 391 1588 391 
Q 1994 391 2212 530 
Q 2431 669 2431 922 
Q 2431 1156 2273 1281 
Q 2116 1406 1581 1522 
L 1381 1569 
Q 847 1681 609 1914 
Q 372 2147 372 2553 
Q 372 3047 722 3315 
Q 1072 3584 1716 3584 
Q 2034 3584 2315 3537 
Q 2597 3491 2834 3397 
z
" transform="scale(0.015625)"/>
      <path id="DejaVuSans-2d" d="M 313 2009 
L 1997 2009 
L 1997 1497 
L 313 1497 
L 313 2009 
z
" transform="scale(0.015625)"/>
      <path id="DejaVuSans-77" d="M 269 3500 
L 844 3500 
L 1563 769 
L 2278 3500 
L 2956 3500 
L 3675 769 
L 4391 3500 
L 4966 3500 
L 4050 0 
L 3372 0 
L 2619 2869 
L 1863 0 
L 1184 0 
L 269 3500 
z
" transform="scale(0.015625)"/>
      <path id="DejaVuSans-70" d="M 1159 525 
L 1159 -1331 
L 581 -1331 
L 581 3500 
L 1159 3500 
L 1159 2969 
Q 1341 3281 1617 3432 
Q 1894 3584 2278 3584 
Q 2916 3584 3314 3078 
Q 3713 2572 3713 1747 
Q 3713 922 3314 415 
Q 2916 -91 2278 -91 
Q 1894 -91 1617 61 
Q 1341 213 1159 525 
z
M 3116 1747 
Q 3116 2381 2855 2742 
Q 2594 3103 2138 3103 
Q 1681 3103 1420 2742 
Q 1159 2381 1159 1747 
Q 1159 1113 1420 752 
Q 1681 391 2138 391 
Q 2594 391 2855 752 
Q 3116 1113 3116 1747 
z
" transform="scale(0.015625)"/>
      <path id="DejaVuSans-68" d="M 3513 2113 
L 3513 0 
L 2938 0 
L 2938 2094 
Q 2938 2591 2744 2837 
Q 2550 3084 2163 3084 
Q 1697 3084 1428 2787 
Q 1159 2491 1159 1978 
L 1159 0 
L 581 0 
L 581 4863 
L 1159 4863 
L 1159 2956 
Q 1366 3272 1645 3428 
Q 1925 3584 2291 3584 
Q 2894 3584 3203 3211 
Q 3513 2838 3513 2113 
z
" transform="scale(0.015625)"/>
      <path id="DejaVuSans-4d" d="M 628 4666 
L 1569 4666 
L 2759 1491 
L 3956 4666 
L 4897 4666 
L 4897 0 
L 4281 0 
L 4281 4097 
L 3078 897 
L 2444 897 
L 1241 4097 
L 1241 0 
L 628 0 
L 628 4666 
z
" transform="scale(0.015625)"/>
      <path id="DejaVuSans-41" d="M 2188 4044 
L 1331 1722 
L 3047 1722 
L 2188 4044 
z
M 1831 4666 
L 2547 4666 
L 4325 0 
L 3669 0 
L 3244 1197 
L 1141 1197 
L 716 0 
L 50 0 
L 1831 4666 
z
" transform="scale(0.015625)"/>
      <path id="DejaVuSans-4a" d="M 628 4666 
L 1259 4666 
L 1259 325 
Q 1259 -519 939 -900 
Q 619 -1281 -91 -1281 
L -331 -1281 
L -331 -750 
L -134 -750 
Q 284 -750 456 -515 
Q 628 -281 628 325 
L 628 4666 
z
" transform="scale(0.015625)"/>
      <path id="DejaVuSans-4f" d="M 2522 4238 
Q 1834 4238 1429 3725 
Q 1025 3213 1025 2328 
Q 1025 1447 1429 934 
Q 1834 422 2522 422 
Q 3209 422 3611 934 
Q 4013 1447 4013 2328 
Q 4013 3213 3611 3725 
Q 3209 4238 2522 4238 
z
M 2522 4750 
Q 3503 4750 4090 4092 
Q 4678 3434 4678 2328 
Q 4678 1225 4090 567 
Q 3503 -91 2522 -91 
Q 1538 -91 948 565 
Q 359 1222 359 2328 
Q 359 3434 948 4092 
Q 1538 4750 2522 4750 
z
" transform="scale(0.015625)"/>
      <path id="DejaVuSans-52" d="M 2841 2188 
Q 3044 2119 3236 1894 
Q 3428 1669 3622 1275 
L 4263 0 
L 3584 0 
L 2988 1197 
Q 2756 1666 2539 1819 
Q 2322 1972 1947 1972 
L 1259 1972 
L 1259 0 
L 628 0 
L 628 4666 
L 2053 4666 
Q 2853 4666 3247 4331 
Q 3641 3997 3641 3322 
Q 3641 2881 3436 2590 
Q 3231 2300 2841 2188 
z
M 1259 4147 
L 1259 2491 
L 2053 2491 
Q 2509 2491 2742 2702 
Q 2975 2913 2975 3322 
Q 2975 3731 2742 3939 
Q 2509 4147 2053 4147 
L 1259 4147 
z
" transform="scale(0.015625)"/>
      <path id="DejaVuSans-67" d="M 2906 1791 
Q 2906 2416 2648 2759 
Q 2391 3103 1925 3103 
Q 1463 3103 1205 2759 
Q 947 2416 947 1791 
Q 947 1169 1205 825 
Q 1463 481 1925 481 
Q 2391 481 2648 825 
Q 2906 1169 2906 1791 
z
M 3481 434 
Q 3481 -459 3084 -895 
Q 2688 -1331 1869 -1331 
Q 1566 -1331 1297 -1286 
Q 1028 -1241 775 -1147 
L 775 -588 
Q 1028 -725 1275 -790 
Q 1522 -856 1778 -856 
Q 2344 -856 2625 -561 
Q 2906 -266 2906 331 
L 2906 616 
Q 2728 306 2450 153 
Q 2172 0 1784 0 
Q 1141 0 747 490 
Q 353 981 353 1791 
Q 353 2603 747 3093 
Q 1141 3584 1784 3584 
Q 2172 3584 2450 3431 
Q 2728 3278 2906 2969 
L 2906 3500 
L 3481 3500 
L 3481 434 
z
" transform="scale(0.015625)"/>
      <path id="DejaVuSans-75" d="M 544 1381 
L 544 3500 
L 1119 3500 
L 1119 1403 
Q 1119 906 1312 657 
Q 1506 409 1894 409 
Q 2359 409 2629 706 
Q 2900 1003 2900 1516 
L 2900 3500 
L 3475 3500 
L 3475 0 
L 2900 0 
L 2900 538 
Q 2691 219 2414 64 
Q 2138 -91 1772 -91 
Q 1169 -91 856 284 
Q 544 659 544 1381 
z
M 1991 3584 
L 1991 3584 
z
" transform="scale(0.015625)"/>
     </defs>
     <use xlink:href="#DejaVuSans-4e"/>
     <use xlink:href="#DejaVuSans-6f" x="74.804688"/>
     <use xlink:href="#DejaVuSans-20" x="135.986328"/>
     <use xlink:href="#DejaVuSans-6b" x="167.773438"/>
     <use xlink:href="#DejaVuSans-65" x="222.058594"/>
     <use xlink:href="#DejaVuSans-72" x="283.582031"/>
     <use xlink:href="#DejaVuSans-6e" x="322.945312"/>
     <use xlink:href="#DejaVuSans-65" x="386.324219"/>
     <use xlink:href="#DejaVuSans-6c" x="447.847656"/>
     <use xlink:href="#DejaVuSans-20" x="475.630859"/>
     <use xlink:href="#DejaVuSans-6d" x="507.417969"/>
     <use xlink:href="#DejaVuSans-6f" x="604.830078"/>
     <use xlink:href="#DejaVuSans-64" x="666.011719"/>
     <use xlink:href="#DejaVuSans-69" x="729.488281"/>
     <use xlink:href="#DejaVuSans-66" x="757.271484"/>
     <use xlink:href="#DejaVuSans-69" x="792.476562"/>
     <use xlink:href="#DejaVuSans-63" x="820.259766"/>
     <use xlink:href="#DejaVuSans-61" x="875.240234"/>
     <use xlink:href="#DejaVuSans-74" x="936.519531"/>
     <use xlink:href="#DejaVuSans-69" x="975.728516"/>
     <use xlink:href="#DejaVuSans-6f" x="1003.511719"/>
     <use xlink:href="#DejaVuSans-6e" x="1064.693359"/>
     <use xlink:href="#DejaVuSans-73" x="1128.072266"/>
     <use xlink:href="#DejaVuSans-20" x="1180.171875"/>
     <use xlink:href="#DejaVuSans-2d" x="1211.958984"/>
     <use xlink:href="#DejaVuSans-20" x="1248.042969"/>
     <use xlink:href="#DejaVuSans-73" x="1279.830078"/>
     <use xlink:href="#DejaVuSans-77" x="1331.929688"/>
     <use xlink:href="#DejaVuSans-61" x="1413.716797"/>
     <use xlink:href="#DejaVuSans-70" x="1474.996094"/>
     <use xlink:href="#DejaVuSans-2d" x="1538.472656"/>
     <use xlink:href="#DejaVuSans-69" x="1574.556641"/>
     <use xlink:href="#DejaVuSans-6e" x="1602.339844"/>
     <use xlink:href="#DejaVuSans-20" x="1665.71875"/>
     <use xlink:href="#DejaVuSans-70" x="1697.505859"/>
     <use xlink:href="#DejaVuSans-61" x="1760.982422"/>
     <use xlink:href="#DejaVuSans-74" x="1822.261719"/>
     <use xlink:href="#DejaVuSans-68" x="1861.470703"/>
     <use xlink:href="#DejaVuSans-20" x="1924.849609"/>
     <use xlink:href="#DejaVuSans-73" x="1956.636719"/>
     <use xlink:href="#DejaVuSans-74" x="2008.736328"/>
     <use xlink:href="#DejaVuSans-61" x="2047.945312"/>
     <use xlink:href="#DejaVuSans-72" x="2109.224609"/>
     <use xlink:href="#DejaVuSans-74" x="2150.337891"/>
     <use xlink:href="#DejaVuSans-73" x="2189.546875"/>
     <use xlink:href="#DejaVuSans-20" x="2241.646484"/>
     <use xlink:href="#DejaVuSans-61" x="2273.433594"/>
     <use xlink:href="#DejaVuSans-66" x="2334.712891"/>
     <use xlink:href="#DejaVuSans-74" x="2368.167969"/>
     <use xlink:href="#DejaVuSans-65" x="2407.376953"/>
     <use xlink:href="#DejaVuSans-72" x="2468.900391"/>
     <use xlink:href="#DejaVuSans-20" x="2510.013672"/>
     <use xlink:href="#DejaVuSans-4d" x="2541.800781"/>
     <use xlink:href="#DejaVuSans-41" x="2628.080078"/>
     <use xlink:href="#DejaVuSans-4a" x="2696.488281"/>
     <use xlink:href="#DejaVuSans-4f" x="2725.980469"/>
     <use xlink:href="#DejaVuSans-52" x="2804.691406"/>
     <use xlink:href="#DejaVuSans-20" x="2874.173828"/>
     <use xlink:href="#DejaVuSans-70" x="2905.960938"/>
     <use xlink:href="#DejaVuSans-61" x="2969.4375"/>
     <use xlink:href="#DejaVuSans-67" x="3030.716797"/>
     <use xlink:href="#DejaVuSans-65" x="3094.193359"/>
     <use xlink:href="#DejaVuSans-20" x="3155.716797"/>
     <use xlink:href="#DejaVuSans-66" x="3187.503906"/>
     <use xlink:href="#DejaVuSans-61" x="3222.708984"/>
     <use xlink:href="#DejaVuSans-75" x="3283.988281"/>
     <use xlink:href="#DejaVuSans-6c" x="3347.367188"/>
     <use xlink:href="#DejaVuSans-74" x="3375.150391"/>
    </g>
   </g>
   <g id="text_3">
    <!-- Application access -->
    <g transform="translate(189.142969 95.951762) scale(0.105 -0.105)">
     <defs>
      <path id="DejaVuSans-Bold-41" d="M 3419 850 
L 1538 850 
L 1241 0 
L 31 0 
L 1759 4666 
L 3194 4666 
L 4922 0 
L 3713 0 
L 3419 850 
z
M 1838 1716 
L 3116 1716 
L 2478 3572 
L 1838 1716 
z
" transform="scale(0.015625)"/>
      <path id="DejaVuSans-Bold-6c" d="M 538 4863 
L 1656 4863 
L 1656 0 
L 538 0 
L 538 4863 
z
" transform="scale(0.015625)"/>
      <path id="DejaVuSans-Bold-74" d="M 1759 4494 
L 1759 3500 
L 2913 3500 
L 2913 2700 
L 1759 2700 
L 1759 1216 
Q 1759 972 1856 886 
Q 1953 800 2241 800 
L 2816 800 
L 2816 0 
L 1856 0 
Q 1194 0 917 276 
Q 641 553 641 1216 
L 641 2700 
L 84 2700 
L 84 3500 
L 641 3500 
L 641 4494 
L 1759 4494 
z
" transform="scale(0.015625)"/>
      <path id="DejaVuSans-Bold-6f" d="M 2203 2784 
Q 1831 2784 1636 2517 
Q 1441 2250 1441 1747 
Q 1441 1244 1636 976 
Q 1831 709 2203 709 
Q 2569 709 2762 976 
Q 2956 1244 2956 1747 
Q 2956 2250 2762 2517 
Q 2569 2784 2203 2784 
z
M 2203 3584 
Q 3106 3584 3614 3096 
Q 4122 2609 4122 1747 
Q 4122 884 3614 396 
Q 3106 -91 2203 -91 
Q 1297 -91 786 396 
Q 275 884 275 1747 
Q 275 2609 786 3096 
Q 1297 3584 2203 3584 
z
" transform="scale(0.015625)"/>
     </defs>
     <use xlink:href="#DejaVuSans-Bold-41"/>
     <use xlink:href="#DejaVuSans-Bold-70" x="77.392578"/>
     <use xlink:href="#DejaVuSans-Bold-70" x="148.974609"/>
     <use xlink:href="#DejaVuSans-Bold-6c" x="220.556641"/>
     <use xlink:href="#DejaVuSans-Bold-69" x="254.833984"/>
     <use xlink:href="#DejaVuSans-Bold-63" x="289.111328"/>
     <use xlink:href="#DejaVuSans-Bold-61" x="348.388672"/>
     <use xlink:href="#DejaVuSans-Bold-74" x="415.869141"/>
     <use xlink:href="#DejaVuSans-Bold-69" x="463.671875"/>
     <use xlink:href="#DejaVuSans-Bold-6f" x="497.949219"/>
     <use xlink:href="#DejaVuSans-Bold-6e" x="566.650391"/>
     <use xlink:href="#DejaVuSans-Bold-20" x="637.841797"/>
     <use xlink:href="#DejaVuSans-Bold-61" x="672.65625"/>
     <use xlink:href="#DejaVuSans-Bold-63" x="740.136719"/>
     <use xlink:href="#DejaVuSans-Bold-63" x="799.414062"/>
     <use xlink:href="#DejaVuSans-Bold-65" x="858.691406"/>
     <use xlink:href="#DejaVuSans-Bold-73" x="926.513672"/>
     <use xlink:href="#DejaVuSans-Bold-73" x="986.035156"/>
    </g>
    <!-- Major page fault raised -->
    <g transform="translate(174.921211 107.709465) scale(0.105 -0.105)">
     <defs>
      <path id="DejaVuSans-Bold-6a" d="M 538 3500 
L 1656 3500 
L 1656 63 
Q 1656 -641 1318 -1011 
Q 981 -1381 341 -1381 
L -213 -1381 
L -213 -647 
L -19 -647 
Q 300 -647 419 -503 
Q 538 -359 538 63 
L 538 3500 
z
M 538 4863 
L 1656 4863 
L 1656 3950 
L 538 3950 
L 538 4863 
z
" transform="scale(0.015625)"/>
      <path id="DejaVuSans-Bold-66" d="M 2841 4863 
L 2841 4128 
L 2222 4128 
Q 1984 4128 1890 4042 
Q 1797 3956 1797 3744 
L 1797 3500 
L 2753 3500 
L 2753 2700 
L 1797 2700 
L 1797 0 
L 678 0 
L 678 2700 
L 122 2700 
L 122 3500 
L 678 3500 
L 678 3744 
Q 678 4316 997 4589 
Q 1316 4863 1984 4863 
L 2841 4863 
z
" transform="scale(0.015625)"/>
      <path id="DejaVuSans-Bold-75" d="M 500 1363 
L 500 3500 
L 1625 3500 
L 1625 3150 
Q 1625 2866 1622 2436 
Q 1619 2006 1619 1863 
Q 1619 1441 1641 1255 
Q 1663 1069 1716 984 
Q 1784 875 1895 815 
Q 2006 756 2150 756 
Q 2500 756 2700 1025 
Q 2900 1294 2900 1772 
L 2900 3500 
L 4019 3500 
L 4019 0 
L 2900 0 
L 2900 506 
Q 2647 200 2364 54 
Q 2081 -91 1741 -91 
Q 1134 -91 817 281 
Q 500 653 500 1363 
z
" transform="scale(0.015625)"/>
      <path id="DejaVuSans-Bold-64" d="M 2919 2988 
L 2919 4863 
L 4044 4863 
L 4044 0 
L 2919 0 
L 2919 506 
Q 2688 197 2409 53 
Q 2131 -91 1766 -91 
Q 1119 -91 703 423 
Q 288 938 288 1747 
Q 288 2556 703 3070 
Q 1119 3584 1766 3584 
Q 2128 3584 2408 3439 
Q 2688 3294 2919 2988 
z
M 2181 722 
Q 2541 722 2730 984 
Q 2919 1247 2919 1747 
Q 2919 2247 2730 2509 
Q 2541 2772 2181 2772 
Q 1825 2772 1636 2509 
Q 1447 2247 1447 1747 
Q 1447 1247 1636 984 
Q 1825 722 2181 722 
z
" transform="scale(0.015625)"/>
     </defs>
     <use xlink:href="#DejaVuSans-Bold-4d"/>
     <use xlink:href="#DejaVuSans-Bold-61" x="99.511719"/>
     <use xlink:href="#DejaVuSans-Bold-6a" x="166.992188"/>
     <use xlink:href="#DejaVuSans-Bold-6f" x="201.269531"/>
     <use xlink:href="#DejaVuSans-Bold-72" x="269.970703"/>
     <use xlink:href="#DejaVuSans-Bold-20" x="319.287109"/>
     <use xlink:href="#DejaVuSans-Bold-70" x="354.101562"/>
     <use xlink:href="#DejaVuSans-Bold-61" x="425.683594"/>
     <use xlink:href="#DejaVuSans-Bold-67" x="493.164062"/>
     <use xlink:href="#DejaVuSans-Bold-65" x="564.746094"/>
     <use xlink:href="#DejaVuSans-Bold-20" x="632.568359"/>
     <use xlink:href="#DejaVuSans-Bold-66" x="667.382812"/>
     <use xlink:href="#DejaVuSans-Bold-61" x="710.888672"/>
     <use xlink:href="#DejaVuSans-Bold-75" x="778.369141"/>
     <use xlink:href="#DejaVuSans-Bold-6c" x="849.560547"/>
     <use xlink:href="#DejaVuSans-Bold-74" x="883.837891"/>
     <use xlink:href="#DejaVuSans-Bold-20" x="931.640625"/>
     <use xlink:href="#DejaVuSans-Bold-72" x="966.455078"/>
     <use xlink:href="#DejaVuSans-Bold-61" x="1015.771484"/>
     <use xlink:href="#DejaVuSans-Bold-69" x="1083.251953"/>
     <use xlink:href="#DejaVuSans-Bold-73" x="1117.529297"/>
     <use xlink:href="#DejaVuSans-Bold-65" x="1177.050781"/>
     <use xlink:href="#DejaVuSans-Bold-64" x="1244.873047"/>
    </g>
   </g>
   <g id="text_4">
    <!-- Userspace Swap Manager -->
    <g transform="translate(162.77725 177.942857) scale(0.112 -0.112)">
     <use xlink:href="#DejaVuSans-Bold-55"/>
     <use xlink:href="#DejaVuSans-Bold-73" x="81.201172"/>
     <use xlink:href="#DejaVuSans-Bold-65" x="140.722656"/>
     <use xlink:href="#DejaVuSans-Bold-72" x="208.544922"/>
     <use xlink:href="#DejaVuSans-Bold-73" x="257.861328"/>
     <use xlink:href="#DejaVuSans-Bold-70" x="317.382812"/>
     <use xlink:href="#DejaVuSans-Bold-61" x="388.964844"/>
     <use xlink:href="#DejaVuSans-Bold-63" x="456.445312"/>
     <use xlink:href="#DejaVuSans-Bold-65" x="515.722656"/>
     <use xlink:href="#DejaVuSans-Bold-20" x="583.544922"/>
     <use xlink:href="#DejaVuSans-Bold-53" x="618.359375"/>
     <use xlink:href="#DejaVuSans-Bold-77" x="690.380859"/>
     <use xlink:href="#DejaVuSans-Bold-61" x="782.763672"/>
     <use xlink:href="#DejaVuSans-Bold-70" x="850.244141"/>
     <use xlink:href="#DejaVuSans-Bold-20" x="921.826172"/>
     <use xlink:href="#DejaVuSans-Bold-4d" x="956.640625"/>
     <use xlink:href="#DejaVuSans-Bold-61" x="1056.152344"/>
     <use xlink:href="#DejaVuSans-Bold-6e" x="1123.632812"/>
     <use xlink:href="#DejaVuSans-Bold-61" x="1194.824219"/>
     <use xlink:href="#DejaVuSans-Bold-67" x="1262.304688"/>
     <use xlink:href="#DejaVuSans-Bold-65" x="1333.886719"/>
     <use xlink:href="#DejaVuSans-Bold-72" x="1401.708984"/>
    </g>
   </g>
   <g id="text_5">
    <!-- (i) Page-location table: page_id -&gt; (dpu_id, offset) -->
    <g transform="translate(118.351008 218.692078) scale(0.089 -0.089)">
     <defs>
      <path id="DejaVuSans-Bold-28" d="M 2413 -844 
L 1484 -844 
Q 1006 -72 778 623 
Q 550 1319 550 2003 
Q 550 2688 779 3389 
Q 1009 4091 1484 4856 
L 2413 4856 
Q 2013 4116 1813 3408 
Q 1613 2700 1613 2009 
Q 1613 1319 1811 609 
Q 2009 -100 2413 -844 
z
" transform="scale(0.015625)"/>
      <path id="DejaVuSans-Bold-29" d="M 513 -844 
Q 913 -100 1113 609 
Q 1313 1319 1313 2009 
Q 1313 2700 1113 3408 
Q 913 4116 513 4856 
L 1441 4856 
Q 1916 4091 2145 3389 
Q 2375 2688 2375 2003 
Q 2375 1319 2147 623 
Q 1919 -72 1441 -844 
L 513 -844 
z
" transform="scale(0.015625)"/>
      <path id="DejaVuSans-Bold-2d" d="M 347 2297 
L 2309 2297 
L 2309 1388 
L 347 1388 
L 347 2297 
z
" transform="scale(0.015625)"/>
      <path id="DejaVuSans-Bold-62" d="M 2400 722 
Q 2759 722 2948 984 
Q 3138 1247 3138 1747 
Q 3138 2247 2948 2509 
Q 2759 2772 2400 2772 
Q 2041 2772 1848 2508 
Q 1656 2244 1656 1747 
Q 1656 1250 1848 986 
Q 2041 722 2400 722 
z
M 1656 2988 
Q 1888 3294 2169 3439 
Q 2450 3584 2816 3584 
Q 3463 3584 3878 3070 
Q 4294 2556 4294 1747 
Q 4294 938 3878 423 
Q 3463 -91 2816 -91 
Q 2450 -91 2169 54 
Q 1888 200 1656 506 
L 1656 0 
L 538 0 
L 538 4863 
L 1656 4863 
L 1656 2988 
z
" transform="scale(0.015625)"/>
      <path id="DejaVuSans-Bold-3a" d="M 716 3500 
L 1844 3500 
L 1844 2291 
L 716 2291 
L 716 3500 
z
M 716 1209 
L 1844 1209 
L 1844 0 
L 716 0 
L 716 1209 
z
" transform="scale(0.015625)"/>
      <path id="DejaVuSans-Bold-5f" d="M 3200 -916 
L 3200 -1509 
L 0 -1509 
L 0 -916 
L 3200 -916 
z
" transform="scale(0.015625)"/>
      <path id="DejaVuSans-Bold-3e" d="M 678 3041 
L 678 3822 
L 4684 2375 
L 4684 1638 
L 678 191 
L 678 972 
L 3694 2003 
L 678 3041 
z
" transform="scale(0.015625)"/>
      <path id="DejaVuSans-Bold-2c" d="M 653 1209 
L 1778 1209 
L 1778 256 
L 1006 -909 
L 341 -909 
L 653 256 
L 653 1209 
z
" transform="scale(0.015625)"/>
     </defs>
     <use xlink:href="#DejaVuSans-Bold-28"/>
     <use xlink:href="#DejaVuSans-Bold-69" x="45.703125"/>
     <use xlink:href="#DejaVuSans-Bold-29" x="79.980469"/>
     <use xlink:href="#DejaVuSans-Bold-20" x="125.683594"/>
     <use xlink:href="#DejaVuSans-Bold-50" x="160.498047"/>
     <use xlink:href="#DejaVuSans-Bold-61" x="231.164062"/>
     <use xlink:href="#DejaVuSans-Bold-67" x="298.644531"/>
     <use xlink:href="#DejaVuSans-Bold-65" x="370.226562"/>
     <use xlink:href="#DejaVuSans-Bold-2d" x="438.048828"/>
     <use xlink:href="#DejaVuSans-Bold-6c" x="479.552734"/>
     <use xlink:href="#DejaVuSans-Bold-6f" x="513.830078"/>
     <use xlink:href="#DejaVuSans-Bold-63" x="582.53125"/>
     <use xlink:href="#DejaVuSans-Bold-61" x="641.808594"/>
     <use xlink:href="#DejaVuSans-Bold-74" x="709.289062"/>
     <use xlink:href="#DejaVuSans-Bold-69" x="757.091797"/>
     <use xlink:href="#DejaVuSans-Bold-6f" x="791.369141"/>
     <use xlink:href="#DejaVuSans-Bold-6e" x="860.070312"/>
     <use xlink:href="#DejaVuSans-Bold-20" x="931.261719"/>
     <use xlink:href="#DejaVuSans-Bold-74" x="966.076172"/>
     <use xlink:href="#DejaVuSans-Bold-61" x="1013.878906"/>
     <use xlink:href="#DejaVuSans-Bold-62" x="1081.359375"/>
     <use xlink:href="#DejaVuSans-Bold-6c" x="1152.941406"/>
     <use xlink:href="#DejaVuSans-Bold-65" x="1187.21875"/>
     <use xlink:href="#DejaVuSans-Bold-3a" x="1255.041016"/>
     <use xlink:href="#DejaVuSans-Bold-20" x="1295.03125"/>
     <use xlink:href="#DejaVuSans-Bold-70" x="1329.845703"/>
     <use xlink:href="#DejaVuSans-Bold-61" x="1401.427734"/>
     <use xlink:href="#DejaVuSans-Bold-67" x="1468.908203"/>
     <use xlink:href="#DejaVuSans-Bold-65" x="1540.490234"/>
     <use xlink:href="#DejaVuSans-Bold-5f" x="1608.3125"/>
     <use xlink:href="#DejaVuSans-Bold-69" x="1658.3125"/>
     <use xlink:href="#DejaVuSans-Bold-64" x="1692.589844"/>
     <use xlink:href="#DejaVuSans-Bold-20" x="1764.171875"/>
     <use xlink:href="#DejaVuSans-Bold-2d" x="1798.986328"/>
     <use xlink:href="#DejaVuSans-Bold-3e" x="1840.490234"/>
     <use xlink:href="#DejaVuSans-Bold-20" x="1924.279297"/>
     <use xlink:href="#DejaVuSans-Bold-28" x="1959.09375"/>
     <use xlink:href="#DejaVuSans-Bold-64" x="2004.796875"/>
     <use xlink:href="#DejaVuSans-Bold-70" x="2076.378906"/>
     <use xlink:href="#DejaVuSans-Bold-75" x="2147.960938"/>
     <use xlink:href="#DejaVuSans-Bold-5f" x="2219.152344"/>
     <use xlink:href="#DejaVuSans-Bold-69" x="2269.152344"/>
     <use xlink:href="#DejaVuSans-Bold-64" x="2303.429688"/>
     <use xlink:href="#DejaVuSans-Bold-2c" x="2375.011719"/>
     <use xlink:href="#DejaVuSans-Bold-20" x="2413"/>
     <use xlink:href="#DejaVuSans-Bold-6f" x="2447.814453"/>
     <use xlink:href="#DejaVuSans-Bold-66" x="2516.515625"/>
     <use xlink:href="#DejaVuSans-Bold-66" x="2560.021484"/>
     <use xlink:href="#DejaVuSans-Bold-73" x="2603.527344"/>
     <use xlink:href="#DejaVuSans-Bold-65" x="2663.048828"/>
     <use xlink:href="#DejaVuSans-Bold-74" x="2730.871094"/>
     <use xlink:href="#DejaVuSans-Bold-29" x="2778.673828"/>
    </g>
   </g>
   <g id="text_6">
    <!-- (ii) Parallel transfer controller (SDK batch APIs) -->
    <g transform="translate(124.341125 274.307272) scale(0.089 -0.089)">
     <defs>
      <path id="DejaVuSans-Bold-4b" d="M 588 4666 
L 1791 4666 
L 1791 2963 
L 3525 4666 
L 4922 4666 
L 2675 2456 
L 5153 0 
L 3647 0 
L 1791 1838 
L 1791 0 
L 588 0 
L 588 4666 
z
" transform="scale(0.015625)"/>
      <path id="DejaVuSans-Bold-68" d="M 4056 2131 
L 4056 0 
L 2931 0 
L 2931 347 
L 2931 1625 
Q 2931 2084 2911 2256 
Q 2891 2428 2841 2509 
Q 2775 2619 2662 2680 
Q 2550 2741 2406 2741 
Q 2056 2741 1856 2470 
Q 1656 2200 1656 1722 
L 1656 0 
L 538 0 
L 538 4863 
L 1656 4863 
L 1656 2988 
Q 1909 3294 2193 3439 
Q 2478 3584 2822 3584 
Q 3428 3584 3742 3212 
Q 4056 2841 4056 2131 
z
" transform="scale(0.015625)"/>
      <path id="DejaVuSans-Bold-49" d="M 588 4666 
L 1791 4666 
L 1791 0 
L 588 0 
L 588 4666 
z
" transform="scale(0.015625)"/>
     </defs>
     <use xlink:href="#DejaVuSans-Bold-28"/>
     <use xlink:href="#DejaVuSans-Bold-69" x="45.703125"/>
     <use xlink:href="#DejaVuSans-Bold-69" x="79.980469"/>
     <use xlink:href="#DejaVuSans-Bold-29" x="114.257812"/>
     <use xlink:href="#DejaVuSans-Bold-20" x="159.960938"/>
     <use xlink:href="#DejaVuSans-Bold-50" x="194.775391"/>
     <use xlink:href="#DejaVuSans-Bold-61" x="265.441406"/>
     <use xlink:href="#DejaVuSans-Bold-72" x="332.921875"/>
     <use xlink:href="#DejaVuSans-Bold-61" x="382.238281"/>
     <use xlink:href="#DejaVuSans-Bold-6c" x="449.71875"/>
     <use xlink:href="#DejaVuSans-Bold-6c" x="483.996094"/>
     <use xlink:href="#DejaVuSans-Bold-65" x="518.273438"/>
     <use xlink:href="#DejaVuSans-Bold-6c" x="586.095703"/>
     <use xlink:href="#DejaVuSans-Bold-20" x="620.373047"/>
     <use xlink:href="#DejaVuSans-Bold-74" x="655.1875"/>
     <use xlink:href="#DejaVuSans-Bold-72" x="702.990234"/>
     <use xlink:href="#DejaVuSans-Bold-61" x="752.306641"/>
     <use xlink:href="#DejaVuSans-Bold-6e" x="819.787109"/>
     <use xlink:href="#DejaVuSans-Bold-73" x="890.978516"/>
     <use xlink:href="#DejaVuSans-Bold-66" x="950.5"/>
     <use xlink:href="#DejaVuSans-Bold-65" x="994.005859"/>
     <use xlink:href="#DejaVuSans-Bold-72" x="1061.828125"/>
     <use xlink:href="#DejaVuSans-Bold-20" x="1111.144531"/>
     <use xlink:href="#DejaVuSans-Bold-63" x="1145.958984"/>
     <use xlink:href="#DejaVuSans-Bold-6f" x="1205.236328"/>
     <use xlink:href="#DejaVuSans-Bold-6e" x="1273.9375"/>
     <use xlink:href="#DejaVuSans-Bold-74" x="1345.128906"/>
     <use xlink:href="#DejaVuSans-Bold-72" x="1392.931641"/>
     <use xlink:href="#DejaVuSans-Bold-6f" x="1442.248047"/>
     <use xlink:href="#DejaVuSans-Bold-6c" x="1510.949219"/>
     <use xlink:href="#DejaVuSans-Bold-6c" x="1545.226562"/>
     <use xlink:href="#DejaVuSans-Bold-65" x="1579.503906"/>
     <use xlink:href="#DejaVuSans-Bold-72" x="1647.326172"/>
     <use xlink:href="#DejaVuSans-Bold-20" x="1696.642578"/>
     <use xlink:href="#DejaVuSans-Bold-28" x="1731.457031"/>
     <use xlink:href="#DejaVuSans-Bold-53" x="1777.160156"/>
     <use xlink:href="#DejaVuSans-Bold-44" x="1849.181641"/>
     <use xlink:href="#DejaVuSans-Bold-4b" x="1932.189453"/>
     <use xlink:href="#DejaVuSans-Bold-20" x="2009.679688"/>
     <use xlink:href="#DejaVuSans-Bold-62" x="2044.494141"/>
     <use xlink:href="#DejaVuSans-Bold-61" x="2116.076172"/>
     <use xlink:href="#DejaVuSans-Bold-74" x="2183.556641"/>
     <use xlink:href="#DejaVuSans-Bold-63" x="2231.359375"/>
     <use xlink:href="#DejaVuSans-Bold-68" x="2290.636719"/>
     <use xlink:href="#DejaVuSans-Bold-20" x="2361.828125"/>
     <use xlink:href="#DejaVuSans-Bold-41" x="2396.642578"/>
     <use xlink:href="#DejaVuSans-Bold-50" x="2474.035156"/>
     <use xlink:href="#DejaVuSans-Bold-49" x="2547.326172"/>
     <use xlink:href="#DejaVuSans-Bold-73" x="2584.533203"/>
     <use xlink:href="#DejaVuSans-Bold-29" x="2644.054688"/>
    </g>
   </g>
   <g id="text_7">
    <!-- (iii) Round-robin allocator across DPUs -->
    <g transform="translate(146.673867 329.798701) scale(0.089 -0.089)">
     <defs>
      <path id="DejaVuSans-Bold-52" d="M 2297 2597 
Q 2675 2597 2839 2737 
Q 3003 2878 3003 3200 
Q 3003 3519 2839 3656 
Q 2675 3794 2297 3794 
L 1791 3794 
L 1791 2597 
L 2297 2597 
z
M 1791 1766 
L 1791 0 
L 588 0 
L 588 4666 
L 2425 4666 
Q 3347 4666 3776 4356 
Q 4206 4047 4206 3378 
Q 4206 2916 3982 2619 
Q 3759 2322 3309 2181 
Q 3556 2125 3751 1926 
Q 3947 1728 4147 1325 
L 4800 0 
L 3519 0 
L 2950 1159 
Q 2778 1509 2601 1637 
Q 2425 1766 2131 1766 
L 1791 1766 
z
" transform="scale(0.015625)"/>
     </defs>
     <use xlink:href="#DejaVuSans-Bold-28"/>
     <use xlink:href="#DejaVuSans-Bold-69" x="45.703125"/>
     <use xlink:href="#DejaVuSans-Bold-69" x="79.980469"/>
     <use xlink:href="#DejaVuSans-Bold-69" x="114.257812"/>
     <use xlink:href="#DejaVuSans-Bold-29" x="148.535156"/>
     <use xlink:href="#DejaVuSans-Bold-20" x="194.238281"/>
     <use xlink:href="#DejaVuSans-Bold-52" x="229.052734"/>
     <use xlink:href="#DejaVuSans-Bold-6f" x="306.054688"/>
     <use xlink:href="#DejaVuSans-Bold-75" x="374.755859"/>
     <use xlink:href="#DejaVuSans-Bold-6e" x="445.947266"/>
     <use xlink:href="#DejaVuSans-Bold-64" x="517.138672"/>
     <use xlink:href="#DejaVuSans-Bold-2d" x="588.720703"/>
     <use xlink:href="#DejaVuSans-Bold-72" x="630.224609"/>
     <use xlink:href="#DejaVuSans-Bold-6f" x="679.541016"/>
     <use xlink:href="#DejaVuSans-Bold-62" x="748.242188"/>
     <use xlink:href="#DejaVuSans-Bold-69" x="819.824219"/>
     <use xlink:href="#DejaVuSans-Bold-6e" x="854.101562"/>
     <use xlink:href="#DejaVuSans-Bold-20" x="925.292969"/>
     <use xlink:href="#DejaVuSans-Bold-61" x="960.107422"/>
     <use xlink:href="#DejaVuSans-Bold-6c" x="1027.587891"/>
     <use xlink:href="#DejaVuSans-Bold-6c" x="1061.865234"/>
     <use xlink:href="#DejaVuSans-Bold-6f" x="1096.142578"/>
     <use xlink:href="#DejaVuSans-Bold-63" x="1164.84375"/>
     <use xlink:href="#DejaVuSans-Bold-61" x="1224.121094"/>
     <use xlink:href="#DejaVuSans-Bold-74" x="1291.601562"/>
     <use xlink:href="#DejaVuSans-Bold-6f" x="1339.404297"/>
     <use xlink:href="#DejaVuSans-Bold-72" x="1408.105469"/>
     <use xlink:href="#DejaVuSans-Bold-20" x="1457.421875"/>
     <use xlink:href="#DejaVuSans-Bold-61" x="1492.236328"/>
     <use xlink:href="#DejaVuSans-Bold-63" x="1559.716797"/>
     <use xlink:href="#DejaVuSans-Bold-72" x="1618.994141"/>
     <use xlink:href="#DejaVuSans-Bold-6f" x="1668.310547"/>
     <use xlink:href="#DejaVuSans-Bold-73" x="1737.011719"/>
     <use xlink:href="#DejaVuSans-Bold-73" x="1796.533203"/>
     <use xlink:href="#DejaVuSans-Bold-20" x="1856.054688"/>
     <use xlink:href="#DejaVuSans-Bold-44" x="1890.869141"/>
     <use xlink:href="#DejaVuSans-Bold-50" x="1973.876953"/>
     <use xlink:href="#DejaVuSans-Bold-55" x="2047.167969"/>
     <use xlink:href="#DejaVuSans-Bold-73" x="2128.369141"/>
    </g>
   </g>
   <g id="text_8">
    <!-- UPMEM DPU rank + MRAM slots -->
    <g transform="translate(154.288125 450.426183) scale(0.1 -0.1)">
     <defs>
      <path id="DejaVuSans-Bold-6b" d="M 538 4863 
L 1656 4863 
L 1656 2216 
L 2944 3500 
L 4244 3500 
L 2534 1894 
L 4378 0 
L 3022 0 
L 1656 1459 
L 1656 0 
L 538 0 
L 538 4863 
z
" transform="scale(0.015625)"/>
      <path id="DejaVuSans-Bold-2b" d="M 3053 4013 
L 3053 2375 
L 4684 2375 
L 4684 1638 
L 3053 1638 
L 3053 0 
L 2309 0 
L 2309 1638 
L 678 1638 
L 678 2375 
L 2309 2375 
L 2309 4013 
L 3053 4013 
z
" transform="scale(0.015625)"/>
     </defs>
     <use xlink:href="#DejaVuSans-Bold-55"/>
     <use xlink:href="#DejaVuSans-Bold-50" x="81.201172"/>
     <use xlink:href="#DejaVuSans-Bold-4d" x="154.492188"/>
     <use xlink:href="#DejaVuSans-Bold-45" x="254.003906"/>
     <use xlink:href="#DejaVuSans-Bold-4d" x="322.314453"/>
     <use xlink:href="#DejaVuSans-Bold-20" x="421.826172"/>
     <use xlink:href="#DejaVuSans-Bold-44" x="456.640625"/>
     <use xlink:href="#DejaVuSans-Bold-50" x="539.648438"/>
     <use xlink:href="#DejaVuSans-Bold-55" x="612.939453"/>
     <use xlink:href="#DejaVuSans-Bold-20" x="694.140625"/>
     <use xlink:href="#DejaVuSans-Bold-72" x="728.955078"/>
     <use xlink:href="#DejaVuSans-Bold-61" x="778.271484"/>
     <use xlink:href="#DejaVuSans-Bold-6e" x="845.751953"/>
     <use xlink:href="#DejaVuSans-Bold-6b" x="916.943359"/>
     <use xlink:href="#DejaVuSans-Bold-20" x="983.447266"/>
     <use xlink:href="#DejaVuSans-Bold-2b" x="1018.261719"/>
     <use xlink:href="#DejaVuSans-Bold-20" x="1102.050781"/>
     <use xlink:href="#DejaVuSans-Bold-4d" x="1136.865234"/>
     <use xlink:href="#DejaVuSans-Bold-52" x="1236.376953"/>
     <use xlink:href="#DejaVuSans-Bold-41" x="1313.378906"/>
     <use xlink:href="#DejaVuSans-Bold-4d" x="1390.771484"/>
     <use xlink:href="#DejaVuSans-Bold-20" x="1490.283203"/>
     <use xlink:href="#DejaVuSans-Bold-73" x="1525.097656"/>
     <use xlink:href="#DejaVuSans-Bold-6c" x="1584.619141"/>
     <use xlink:href="#DejaVuSans-Bold-6f" x="1618.896484"/>
     <use xlink:href="#DejaVuSans-Bold-74" x="1687.597656"/>
     <use xlink:href="#DejaVuSans-Bold-73" x="1735.400391"/>
    </g>
    <!-- (D0 ... D63) -->
    <g transform="translate(211.5475 461.623996) scale(0.1 -0.1)">
     <defs>
      <path id="DejaVuSans-Bold-30" d="M 2944 2338 
Q 2944 3213 2780 3570 
Q 2616 3928 2228 3928 
Q 1841 3928 1675 3570 
Q 1509 3213 1509 2338 
Q 1509 1453 1675 1090 
Q 1841 728 2228 728 
Q 2613 728 2778 1090 
Q 2944 1453 2944 2338 
z
M 4147 2328 
Q 4147 1169 3647 539 
Q 3147 -91 2228 -91 
Q 1306 -91 806 539 
Q 306 1169 306 2328 
Q 306 3491 806 4120 
Q 1306 4750 2228 4750 
Q 3147 4750 3647 4120 
Q 4147 3491 4147 2328 
z
" transform="scale(0.015625)"/>
      <path id="DejaVuSans-Bold-2e" d="M 653 1209 
L 1778 1209 
L 1778 0 
L 653 0 
L 653 1209 
z
" transform="scale(0.015625)"/>
      <path id="DejaVuSans-Bold-36" d="M 2316 2303 
Q 2000 2303 1842 2098 
Q 1684 1894 1684 1484 
Q 1684 1075 1842 870 
Q 2000 666 2316 666 
Q 2634 666 2792 870 
Q 2950 1075 2950 1484 
Q 2950 1894 2792 2098 
Q 2634 2303 2316 2303 
z
M 3803 4544 
L 3803 3681 
Q 3506 3822 3243 3889 
Q 2981 3956 2731 3956 
Q 2194 3956 1894 3657 
Q 1594 3359 1544 2772 
Q 1750 2925 1990 3001 
Q 2231 3078 2516 3078 
Q 3231 3078 3670 2659 
Q 4109 2241 4109 1563 
Q 4109 813 3618 361 
Q 3128 -91 2303 -91 
Q 1394 -91 895 523 
Q 397 1138 397 2266 
Q 397 3422 980 4083 
Q 1563 4744 2578 4744 
Q 2900 4744 3203 4694 
Q 3506 4644 3803 4544 
z
" transform="scale(0.015625)"/>
      <path id="DejaVuSans-Bold-33" d="M 2981 2516 
Q 3453 2394 3698 2092 
Q 3944 1791 3944 1325 
Q 3944 631 3412 270 
Q 2881 -91 1863 -91 
Q 1503 -91 1142 -33 
Q 781 25 428 141 
L 428 1069 
Q 766 900 1098 814 
Q 1431 728 1753 728 
Q 2231 728 2486 893 
Q 2741 1059 2741 1369 
Q 2741 1688 2480 1852 
Q 2219 2016 1709 2016 
L 1228 2016 
L 1228 2791 
L 1734 2791 
Q 2188 2791 2409 2933 
Q 2631 3075 2631 3366 
Q 2631 3634 2415 3781 
Q 2200 3928 1806 3928 
Q 1516 3928 1219 3862 
Q 922 3797 628 3669 
L 628 4550 
Q 984 4650 1334 4700 
Q 1684 4750 2022 4750 
Q 2931 4750 3382 4451 
Q 3834 4153 3834 3553 
Q 3834 3144 3618 2883 
Q 3403 2622 2981 2516 
z
" transform="scale(0.015625)"/>
     </defs>
     <use xlink:href="#DejaVuSans-Bold-28"/>
     <use xlink:href="#DejaVuSans-Bold-44" x="45.703125"/>
     <use xlink:href="#DejaVuSans-Bold-30" x="128.710938"/>
     <use xlink:href="#DejaVuSans-Bold-20" x="198.291016"/>
     <use xlink:href="#DejaVuSans-Bold-2e" x="233.105469"/>
     <use xlink:href="#DejaVuSans-Bold-2e" x="271.09375"/>
     <use xlink:href="#DejaVuSans-Bold-2e" x="309.082031"/>
     <use xlink:href="#DejaVuSans-Bold-20" x="347.070312"/>
     <use xlink:href="#DejaVuSans-Bold-44" x="381.884766"/>
     <use xlink:href="#DejaVuSans-Bold-36" x="464.892578"/>
     <use xlink:href="#DejaVuSans-Bold-33" x="534.472656"/>
     <use xlink:href="#DejaVuSans-Bold-29" x="604.052734"/>
    </g>
   </g>
   <g id="text_9">
    <!-- major page fault -&gt; page lookup -->
    <g style="fill: #333333" transform="translate(170.87625 141.66) scale(0.09 -0.09)">
     <defs>
      <path id="DejaVuSans-6a" d="M 603 3500 
L 1178 3500 
L 1178 -63 
Q 1178 -731 923 -1031 
Q 669 -1331 103 -1331 
L -116 -1331 
L -116 -844 
L 38 -844 
Q 366 -844 484 -692 
Q 603 -541 603 -63 
L 603 3500 
z
M 603 4863 
L 1178 4863 
L 1178 4134 
L 603 4134 
L 603 4863 
z
" transform="scale(0.015625)"/>
      <path id="DejaVuSans-3e" d="M 678 3150 
L 678 3719 
L 4684 2266 
L 4684 1747 
L 678 294 
L 678 863 
L 3897 2003 
L 678 3150 
z
" transform="scale(0.015625)"/>
     </defs>
     <use xlink:href="#DejaVuSans-6d"/>
     <use xlink:href="#DejaVuSans-61" x="97.412109"/>
     <use xlink:href="#DejaVuSans-6a" x="158.691406"/>
     <use xlink:href="#DejaVuSans-6f" x="186.474609"/>
     <use xlink:href="#DejaVuSans-72" x="247.65625"/>
     <use xlink:href="#DejaVuSans-20" x="288.769531"/>
     <use xlink:href="#DejaVuSans-70" x="320.556641"/>
     <use xlink:href="#DejaVuSans-61" x="384.033203"/>
     <use xlink:href="#DejaVuSans-67" x="445.3125"/>
     <use xlink:href="#DejaVuSans-65" x="508.789062"/>
     <use xlink:href="#DejaVuSans-20" x="570.3125"/>
     <use xlink:href="#DejaVuSans-66" x="602.099609"/>
     <use xlink:href="#DejaVuSans-61" x="637.304688"/>
     <use xlink:href="#DejaVuSans-75" x="698.583984"/>
     <use xlink:href="#DejaVuSans-6c" x="761.962891"/>
     <use xlink:href="#DejaVuSans-74" x="789.746094"/>
     <use xlink:href="#DejaVuSans-20" x="828.955078"/>
     <use xlink:href="#DejaVuSans-2d" x="860.742188"/>
     <use xlink:href="#DejaVuSans-3e" x="896.826172"/>
     <use xlink:href="#DejaVuSans-20" x="980.615234"/>
     <use xlink:href="#DejaVuSans-70" x="1012.402344"/>
     <use xlink:href="#DejaVuSans-61" x="1075.878906"/>
     <use xlink:href="#DejaVuSans-67" x="1137.158203"/>
     <use xlink:href="#DejaVuSans-65" x="1200.634766"/>
     <use xlink:href="#DejaVuSans-20" x="1262.158203"/>
     <use xlink:href="#DejaVuSans-6c" x="1293.945312"/>
     <use xlink:href="#DejaVuSans-6f" x="1321.728516"/>
     <use xlink:href="#DejaVuSans-6f" x="1382.910156"/>
     <use xlink:href="#DejaVuSans-6b" x="1444.091797"/>
     <use xlink:href="#DejaVuSans-75" x="1498.876953"/>
     <use xlink:href="#DejaVuSans-70" x="1562.255859"/>
    </g>
   </g>
   <g id="text_10">
    <!-- batched DMA writes -->
    <g style="fill: #333333" transform="translate(198.760781 404.177143) scale(0.09 -0.09)">
     <defs>
      <path id="DejaVuSans-62" d="M 3116 1747 
Q 3116 2381 2855 2742 
Q 2594 3103 2138 3103 
Q 1681 3103 1420 2742 
Q 1159 2381 1159 1747 
Q 1159 1113 1420 752 
Q 1681 391 2138 391 
Q 2594 391 2855 752 
Q 3116 1113 3116 1747 
z
M 1159 2969 
Q 1341 3281 1617 3432 
Q 1894 3584 2278 3584 
Q 2916 3584 3314 3078 
Q 3713 2572 3713 1747 
Q 3713 922 3314 415 
Q 2916 -91 2278 -91 
Q 1894 -91 1617 61 
Q 1341 213 1159 525 
L 1159 0 
L 581 0 
L 581 4863 
L 1159 4863 
L 1159 2969 
z
" transform="scale(0.015625)"/>
      <path id="DejaVuSans-44" d="M 1259 4147 
L 1259 519 
L 2022 519 
Q 2988 519 3436 956 
Q 3884 1394 3884 2338 
Q 3884 3275 3436 3711 
Q 2988 4147 2022 4147 
L 1259 4147 
z
M 628 4666 
L 1925 4666 
Q 3281 4666 3915 4102 
Q 4550 3538 4550 2338 
Q 4550 1131 3912 565 
Q 3275 0 1925 0 
L 628 0 
L 628 4666 
z
" transform="scale(0.015625)"/>
     </defs>
     <use xlink:href="#DejaVuSans-62"/>
     <use xlink:href="#DejaVuSans-61" x="63.476562"/>
     <use xlink:href="#DejaVuSans-74" x="124.755859"/>
     <use xlink:href="#DejaVuSans-63" x="163.964844"/>
     <use xlink:href="#DejaVuSans-68" x="218.945312"/>
     <use xlink:href="#DejaVuSans-65" x="282.324219"/>
     <use xlink:href="#DejaVuSans-64" x="343.847656"/>
     <use xlink:href="#DejaVuSans-20" x="407.324219"/>
     <use xlink:href="#DejaVuSans-44" x="439.111328"/>
     <use xlink:href="#DejaVuSans-4d" x="516.113281"/>
     <use xlink:href="#DejaVuSans-41" x="602.392578"/>
     <use xlink:href="#DejaVuSans-20" x="670.800781"/>
     <use xlink:href="#DejaVuSans-77" x="702.587891"/>
     <use xlink:href="#DejaVuSans-72" x="784.375"/>
     <use xlink:href="#DejaVuSans-69" x="825.488281"/>
     <use xlink:href="#DejaVuSans-74" x="853.271484"/>
     <use xlink:href="#DejaVuSans-65" x="892.480469"/>
     <use xlink:href="#DejaVuSans-73" x="954.003906"/>
    </g>
   </g>
   <g id="text_11">
    <!-- parallel MRAM reads (swap-in) -->
    <g style="fill: #1f1f1f" transform="translate(317.961703 330.757714) scale(0.09 -0.09)">
     <defs>
      <path id="DejaVuSans-28" d="M 1984 4856 
Q 1566 4138 1362 3434 
Q 1159 2731 1159 2009 
Q 1159 1288 1364 580 
Q 1569 -128 1984 -844 
L 1484 -844 
Q 1016 -109 783 600 
Q 550 1309 550 2009 
Q 550 2706 781 3412 
Q 1013 4119 1484 4856 
L 1984 4856 
z
" transform="scale(0.015625)"/>
      <path id="DejaVuSans-29" d="M 513 4856 
L 1013 4856 
Q 1481 4119 1714 3412 
Q 1947 2706 1947 2009 
Q 1947 1309 1714 600 
Q 1481 -109 1013 -844 
L 513 -844 
Q 928 -128 1133 580 
Q 1338 1288 1338 2009 
Q 1338 2731 1133 3434 
Q 928 4138 513 4856 
z
" transform="scale(0.015625)"/>
     </defs>
     <use xlink:href="#DejaVuSans-70"/>
     <use xlink:href="#DejaVuSans-61" x="63.476562"/>
     <use xlink:href="#DejaVuSans-72" x="124.755859"/>
     <use xlink:href="#DejaVuSans-61" x="165.869141"/>
     <use xlink:href="#DejaVuSans-6c" x="227.148438"/>
     <use xlink:href="#DejaVuSans-6c" x="254.931641"/>
     <use xlink:href="#DejaVuSans-65" x="282.714844"/>
     <use xlink:href="#DejaVuSans-6c" x="344.238281"/>
     <use xlink:href="#DejaVuSans-20" x="372.021484"/>
     <use xlink:href="#DejaVuSans-4d" x="403.808594"/>
     <use xlink:href="#DejaVuSans-52" x="490.087891"/>
     <use xlink:href="#DejaVuSans-41" x="555.570312"/>
     <use xlink:href="#DejaVuSans-4d" x="623.978516"/>
     <use xlink:href="#DejaVuSans-20" x="710.257812"/>
     <use xlink:href="#DejaVuSans-72" x="742.044922"/>
     <use xlink:href="#DejaVuSans-65" x="780.908203"/>
     <use xlink:href="#DejaVuSans-61" x="842.431641"/>
     <use xlink:href="#DejaVuSans-64" x="903.710938"/>
     <use xlink:href="#DejaVuSans-73" x="967.1875"/>
     <use xlink:href="#DejaVuSans-20" x="1019.287109"/>
     <use xlink:href="#DejaVuSans-28" x="1051.074219"/>
     <use xlink:href="#DejaVuSans-73" x="1090.087891"/>
     <use xlink:href="#DejaVuSans-77" x="1142.1875"/>
     <use xlink:href="#DejaVuSans-61" x="1223.974609"/>
     <use xlink:href="#DejaVuSans-70" x="1285.253906"/>
     <use xlink:href="#DejaVuSans-2d" x="1348.730469"/>
     <use xlink:href="#DejaVuSans-69" x="1384.814453"/>
     <use xlink:href="#DejaVuSans-6e" x="1412.597656"/>
     <use xlink:href="#DejaVuSans-29" x="1475.976562"/>
    </g>
   </g>
   <g id="text_12">
    <!-- Priority: low swap-in latency after major page fault under concurrent faults -->
    <g transform="translate(43.382453 530.1) scale(0.094 -0.094)">
     <defs>
      <path id="DejaVuSans-Bold-79" d="M 78 3500 
L 1197 3500 
L 2138 1125 
L 2938 3500 
L 4056 3500 
L 2584 -331 
Q 2363 -916 2067 -1148 
Q 1772 -1381 1288 -1381 
L 641 -1381 
L 641 -647 
L 991 -647 
Q 1275 -647 1404 -556 
Q 1534 -466 1606 -231 
L 1638 -134 
L 78 3500 
z
" transform="scale(0.015625)"/>
      <path id="DejaVuSans-Bold-6d" d="M 3781 2919 
Q 3994 3244 4286 3414 
Q 4578 3584 4928 3584 
Q 5531 3584 5847 3212 
Q 6163 2841 6163 2131 
L 6163 0 
L 5038 0 
L 5038 1825 
Q 5041 1866 5042 1909 
Q 5044 1953 5044 2034 
Q 5044 2406 4934 2573 
Q 4825 2741 4581 2741 
Q 4263 2741 4089 2478 
Q 3916 2216 3909 1719 
L 3909 0 
L 2784 0 
L 2784 1825 
Q 2784 2406 2684 2573 
Q 2584 2741 2328 2741 
Q 2006 2741 1831 2477 
Q 1656 2213 1656 1722 
L 1656 0 
L 531 0 
L 531 3500 
L 1656 3500 
L 1656 2988 
Q 1863 3284 2130 3434 
Q 2397 3584 2719 3584 
Q 3081 3584 3359 3409 
Q 3638 3234 3781 2919 
z
" transform="scale(0.015625)"/>
     </defs>
     <use xlink:href="#DejaVuSans-Bold-50"/>
     <use xlink:href="#DejaVuSans-Bold-72" x="73.291016"/>
     <use xlink:href="#DejaVuSans-Bold-69" x="122.607422"/>
     <use xlink:href="#DejaVuSans-Bold-6f" x="156.884766"/>
     <use xlink:href="#DejaVuSans-Bold-72" x="225.585938"/>
     <use xlink:href="#DejaVuSans-Bold-69" x="274.902344"/>
     <use xlink:href="#DejaVuSans-Bold-74" x="309.179688"/>
     <use xlink:href="#DejaVuSans-Bold-79" x="356.982422"/>
     <use xlink:href="#DejaVuSans-Bold-3a" x="422.167969"/>
     <use xlink:href="#DejaVuSans-Bold-20" x="462.158203"/>
     <use xlink:href="#DejaVuSans-Bold-6c" x="496.972656"/>
     <use xlink:href="#DejaVuSans-Bold-6f" x="531.25"/>
     <use xlink:href="#DejaVuSans-Bold-77" x="599.951172"/>
     <use xlink:href="#DejaVuSans-Bold-20" x="692.333984"/>
     <use xlink:href="#DejaVuSans-Bold-73" x="727.148438"/>
     <use xlink:href="#DejaVuSans-Bold-77" x="786.669922"/>
     <use xlink:href="#DejaVuSans-Bold-61" x="879.052734"/>
     <use xlink:href="#DejaVuSans-Bold-70" x="946.533203"/>
     <use xlink:href="#DejaVuSans-Bold-2d" x="1018.115234"/>
     <use xlink:href="#DejaVuSans-Bold-69" x="1059.619141"/>
     <use xlink:href="#DejaVuSans-Bold-6e" x="1093.896484"/>
     <use xlink:href="#DejaVuSans-Bold-20" x="1165.087891"/>
     <use xlink:href="#DejaVuSans-Bold-6c" x="1199.902344"/>
     <use xlink:href="#DejaVuSans-Bold-61" x="1234.179688"/>
     <use xlink:href="#DejaVuSans-Bold-74" x="1301.660156"/>
     <use xlink:href="#DejaVuSans-Bold-65" x="1349.462891"/>
     <use xlink:href="#DejaVuSans-Bold-6e" x="1417.285156"/>
     <use xlink:href="#DejaVuSans-Bold-63" x="1488.476562"/>
     <use xlink:href="#DejaVuSans-Bold-79" x="1547.753906"/>
     <use xlink:href="#DejaVuSans-Bold-20" x="1612.939453"/>
     <use xlink:href="#DejaVuSans-Bold-61" x="1647.753906"/>
     <use xlink:href="#DejaVuSans-Bold-66" x="1715.234375"/>
     <use xlink:href="#DejaVuSans-Bold-74" x="1758.740234"/>
     <use xlink:href="#DejaVuSans-Bold-65" x="1806.542969"/>
     <use xlink:href="#DejaVuSans-Bold-72" x="1874.365234"/>
     <use xlink:href="#DejaVuSans-Bold-20" x="1923.681641"/>
     <use xlink:href="#DejaVuSans-Bold-6d" x="1958.496094"/>
     <use xlink:href="#DejaVuSans-Bold-61" x="2062.695312"/>
     <use xlink:href="#DejaVuSans-Bold-6a" x="2130.175781"/>
     <use xlink:href="#DejaVuSans-Bold-6f" x="2164.453125"/>
     <use xlink:href="#DejaVuSans-Bold-72" x="2233.154297"/>
     <use xlink:href="#DejaVuSans-Bold-20" x="2282.470703"/>
     <use xlink:href="#DejaVuSans-Bold-70" x="2317.285156"/>
     <use xlink:href="#DejaVuSans-Bold-61" x="2388.867188"/>
     <use xlink:href="#DejaVuSans-Bold-67" x="2456.347656"/>
     <use xlink:href="#DejaVuSans-Bold-65" x="2527.929688"/>
     <use xlink:href="#DejaVuSans-Bold-20" x="2595.751953"/>
     <use xlink:href="#DejaVuSans-Bold-66" x="2630.566406"/>
     <use xlink:href="#DejaVuSans-Bold-61" x="2674.072266"/>
     <use xlink:href="#DejaVuSans-Bold-75" x="2741.552734"/>
     <use xlink:href="#DejaVuSans-Bold-6c" x="2812.744141"/>
     <use xlink:href="#DejaVuSans-Bold-74" x="2847.021484"/>
     <use xlink:href="#DejaVuSans-Bold-20" x="2894.824219"/>
     <use xlink:href="#DejaVuSans-Bold-75" x="2929.638672"/>
     <use xlink:href="#DejaVuSans-Bold-6e" x="3000.830078"/>
     <use xlink:href="#DejaVuSans-Bold-64" x="3072.021484"/>
     <use xlink:href="#DejaVuSans-Bold-65" x="3143.603516"/>
     <use xlink:href="#DejaVuSans-Bold-72" x="3211.425781"/>
     <use xlink:href="#DejaVuSans-Bold-20" x="3260.742188"/>
     <use xlink:href="#DejaVuSans-Bold-63" x="3295.556641"/>
     <use xlink:href="#DejaVuSans-Bold-6f" x="3354.833984"/>
     <use xlink:href="#DejaVuSans-Bold-6e" x="3423.535156"/>
     <use xlink:href="#DejaVuSans-Bold-63" x="3494.726562"/>
     <use xlink:href="#DejaVuSans-Bold-75" x="3554.003906"/>
     <use xlink:href="#DejaVuSans-Bold-72" x="3625.195312"/>
     <use xlink:href="#DejaVuSans-Bold-72" x="3674.511719"/>
     <use xlink:href="#DejaVuSans-Bold-65" x="3723.828125"/>
     <use xlink:href="#DejaVuSans-Bold-6e" x="3791.650391"/>
     <use xlink:href="#DejaVuSans-Bold-74" x="3862.841797"/>
     <use xlink:href="#DejaVuSans-Bold-20" x="3910.644531"/>
     <use xlink:href="#DejaVuSans-Bold-66" x="3945.458984"/>
     <use xlink:href="#DejaVuSans-Bold-61" x="3988.964844"/>
     <use xlink:href="#DejaVuSans-Bold-75" x="4056.445312"/>
     <use xlink:href="#DejaVuSans-Bold-6c" x="4127.636719"/>
     <use xlink:href="#DejaVuSans-Bold-74" x="4161.914062"/>
     <use xlink:href="#DejaVuSans-Bold-73" x="4209.716797"/>
    </g>
   </g>
  </g>
 </g>
 <defs>
  <clipPath id="p0a987a1edb">
   <rect x="7.2" y="7.2" width="473.67" height="597.6"/>
  </clipPath>
 </defs>
</svg>
